<svg version="1.1" viewBox="0.0 0.0 403.90551181102364 122.4724409448819" fill="none" stroke="none" stroke-linecap="square" stroke-miterlimit="10" xmlns:xlink="http://www.w3.org/1999/xlink" xmlns="http://www.w3.org/2000/svg"><clipPath id="p.0"><path d="m0 0l403.90552 0l0 122.47244l-403.90552 0l0 -122.47244z" clip-rule="nonzero"/></clipPath><g clip-path="url(#p.0)"><path fill="#000000" fill-opacity="0.0" d="m0 0l403.90552 0l0 122.47244l-403.90552 0z" fill-rule="evenodd"/><path fill="#000000" fill-opacity="0.0" d="m10.834467 1.0327777l230.77165 0l0 58.992126l-230.77165 0z" fill-rule="evenodd"/><path fill="#ff6600" d="m45.208702 41.88134q-2.328125 0 -4.265625 -0.796875q-1.921875 -0.796875 -3.34375 -2.28125q-1.40625 -1.5 -2.1875 -3.53125q-0.78125 -2.046875 -0.78125 -4.468748q0 -2.328125 0.828125 -4.3125q0.828125 -2.0 2.296875 -3.5q1.484375 -1.5 3.4375 -2.328125q1.96875 -0.828125 4.265625 -0.828125q1.5625 0 3.03125 0.46875q1.46875 0.453125 2.6875 1.265625q1.234375 0.8125 2.0625 1.875l-2.546875 2.796875q-0.796875 -0.828125 -1.640625 -1.390625q-0.84375 -0.578125 -1.75 -0.859375q-0.890625 -0.296875 -1.84375 -0.296875q-1.40625 0 -2.65625 0.53125q-1.234375 0.515625 -2.140625 1.46875q-0.90625 0.953125 -1.4375 2.25q-0.515625 1.296875 -0.515625 2.890625q0 1.6249981 0.5 2.953123q0.515625 1.3125 1.453125 2.265625q0.9375 0.953125 2.234375 1.453125q1.296875 0.5 2.859375 0.5q1.015625 0 1.96875 -0.265625q0.953125 -0.28125 1.765625 -0.78125q0.8125 -0.515625 1.484375 -1.1875l1.96875 3.15625q-0.75 0.828125 -1.96875 1.515625q-1.21875 0.671875 -2.75 1.0625q-1.515625 0.375 -3.015625 0.375zm17.297058 0q-2.0 0 -3.625 -1.109375q-1.625 -1.109375 -2.609375 -3.0q-0.96875 -1.90625 -0.96875 -4.328125q0 -2.421873 0.96875 -4.312498q0.984375 -1.90625 2.671875 -2.984375q1.6875 -1.078125 3.796875 -1.078125q1.234375 0 2.234375 0.359375q1.015625 0.359375 1.78125 1.0q0.765625 0.640625 1.265625 1.46875q0.515625 0.828125 0.703125 1.78125l-0.828125 -0.21875l0 -4.046875l3.796875 0l0 16.156248l-3.828125 0l0 -3.859375l0.890625 -0.15625q-0.21875 0.828125 -0.78125 1.609375q-0.5625 0.78125 -1.40625 1.390625q-0.84375 0.59375 -1.875 0.96875q-1.03125 0.359375 -2.1875 0.359375zm1.03125 -3.34375q1.328125 0 2.328125 -0.640625q1.015625 -0.65625 1.578125 -1.796875q0.578125 -1.15625 0.578125 -2.65625q0 -1.4687481 -0.578125 -2.593748q-0.5625 -1.140625 -1.578125 -1.78125q-1.0 -0.65625 -2.328125 -0.65625q-1.3125 0 -2.3125 0.65625q-0.984375 0.640625 -1.546875 1.78125q-0.546875 1.125 -0.546875 2.593748q0 1.5 0.546875 2.65625q0.5625 1.140625 1.546875 1.796875q1.0 0.640625 2.3125 0.640625zm12.540741 9.78125l0 -22.906248l3.71875 0l0.0625 3.671875l-0.65625 -0.265625q0.1875 -0.953125 1.046875 -1.796875q0.859375 -0.84375 2.09375 -1.359375q1.25 -0.53125 2.59375 -0.53125q2.15625 0 3.8125 1.078125q1.671875 1.078125 2.640625 2.953125q0.96875 1.859375 0.96875 4.312498q0 2.421875 -0.96875 4.3125q-0.96875 1.875 -2.640625 2.96875q-1.65625 1.09375 -3.75 1.09375q-1.40625 0 -2.71875 -0.546875q-1.296875 -0.5625 -2.203125 -1.453125q-0.90625 -0.890625 -1.109375 -1.875l0.921875 -0.421875l0 10.765625l-3.8125 0zm8.15625 -9.8125q1.296875 0 2.296875 -0.640625q1.015625 -0.65625 1.578125 -1.78125q0.578125 -1.140625 0.578125 -2.609375q0 -1.46875 -0.5625 -2.578123q-0.546875 -1.125 -1.5625 -1.765625q-1.0 -0.65625 -2.328125 -0.65625q-1.34375 0 -2.34375 0.640625q-1.0 0.625 -1.578125 1.765625q-0.578125 1.1249981 -0.578125 2.593748q0 1.46875 0.578125 2.609375q0.578125 1.125 1.578125 1.78125q1.0 0.640625 2.34375 0.640625zm11.931961 3.0625l0 -16.156248l3.765625 0l0 16.156248l-3.765625 0zm1.828125 -19.593748q-1.125 0 -1.765625 -0.5625q-0.625 -0.5625 -0.625 -1.609375q0 -0.984375 0.640625 -1.59375q0.65625 -0.609375 1.75 -0.609375q1.171875 0 1.796875 0.5625q0.625 0.5625 0.625 1.640625q0 0.953125 -0.640625 1.5625q-0.640625 0.609375 -1.78125 0.609375zm8.466675 19.593748l0 -20.265623l3.765625 0l0 20.265623l-3.765625 0zm-3.1875 -12.656248l0 -3.5l10.484375 0l0 3.5l-10.484375 0zm19.318848 12.968748q-2.0 0 -3.625 -1.109375q-1.625 -1.109375 -2.609375 -3.0q-0.96875 -1.90625 -0.96875 -4.328125q0 -2.421873 0.96875 -4.312498q0.984375 -1.90625 2.671875 -2.984375q1.6875 -1.078125 3.796875 -1.078125q1.234375 0 2.234375 0.359375q1.015625 0.359375 1.78125 1.0q0.765625 0.640625 1.2656326 1.46875q0.515625 0.828125 0.703125 1.78125l-0.8281326 -0.21875l0 -4.046875l3.7968826 0l0 16.156248l-3.8281326 0l0 -3.859375l0.8906326 -0.15625q-0.21875 0.828125 -0.78125 1.609375q-0.5625076 0.78125 -1.4062576 1.390625q-0.84375 0.59375 -1.875 0.96875q-1.03125 0.359375 -2.1875 0.359375zm1.03125 -3.34375q1.328125 0 2.328125 -0.640625q1.015625 -0.65625 1.578125 -1.796875q0.5781326 -1.15625 0.5781326 -2.65625q0 -1.4687481 -0.5781326 -2.593748q-0.5625 -1.140625 -1.578125 -1.78125q-1.0 -0.65625 -2.328125 -0.65625q-1.3125 0 -2.3125 0.65625q-0.984375 0.640625 -1.546875 1.78125q-0.546875 1.125 -0.546875 2.593748q0 1.5 0.546875 2.65625q0.5625 1.140625 1.546875 1.796875q1.0 0.640625 2.3125 0.640625zm12.571999 3.03125l0 -22.687498l3.8125 0l0 22.687498l-3.8125 0zm15.730331 0.3125q-1.875 0 -3.4375 -0.46875q-1.5625 -0.484375 -2.828125 -1.4375q-1.25 -0.953125 -2.21875 -2.296875l2.59375 -2.953125q1.5 2.09375 2.9375 2.890625q1.453125 0.796875 3.265625 0.796875q1.03125 0 1.890625 -0.3125q0.859375 -0.328125 1.34375 -0.890625q0.5 -0.578125 0.5 -1.3125q0 -0.515625 -0.203125 -0.953125q-0.203125 -0.453125 -0.609375 -0.796875q-0.390625 -0.359375 -0.96875 -0.671875q-0.578125 -0.3125 -1.3125 -0.515625q-0.734375 -0.21875 -1.625 -0.40625q-1.6875 -0.328125 -2.953125 -0.8906231q-1.25 -0.578125 -2.109375 -1.421875q-0.859375 -0.84375 -1.265625 -1.890625q-0.390625 -1.0625 -0.390625 -2.421875q0 -1.34375 0.59375 -2.46875q0.609375 -1.140625 1.640625 -1.96875q1.046875 -0.828125 2.421875 -1.28125q1.390625 -0.46875 2.984375 -0.46875q1.796875 0 3.21875 0.4375q1.4375 0.421875 2.515625 1.265625q1.09375 0.84375 1.796875 2.03125l-2.625 2.609375q-0.625 -0.953125 -1.390625 -1.578125q-0.765625 -0.625 -1.65625 -0.9375q-0.890625 -0.328125 -1.859375 -0.328125q-1.109375 0 -1.921875 0.3125q-0.8125 0.296875 -1.28125 0.875q-0.453125 0.5625 -0.453125 1.359375q0 0.609375 0.28125 1.09375q0.28125 0.46875 0.78125 0.84375q0.5 0.359375 1.296875 0.640625q0.796875 0.265625 1.8125 0.484375q1.6875 0.328125 3.03125 0.90625q1.359375 0.5625 2.296875 1.34375q0.953125 0.78125 1.4375 1.7812481q0.5 1.0 0.5 2.21875q0 2.109375 -1.0 3.640625q-0.984375 1.515625 -2.796875 2.328125q-1.8125 0.8125 -4.234375 0.8125zm17.846527 0q-2.0 0 -3.625 -1.109375q-1.625 -1.109375 -2.609375 -3.0q-0.96875 -1.90625 -0.96875 -4.328125q0 -2.421873 0.96875 -4.312498q0.984375 -1.90625 2.671875 -2.984375q1.6875 -1.078125 3.796875 -1.078125q1.234375 0 2.234375 0.359375q1.015625 0.359375 1.78125 1.0q0.765625 0.640625 1.265625 1.46875q0.515625 0.828125 0.703125 1.78125l-0.828125 -0.21875l0 -4.046875l3.796875 0l0 16.156248l-3.828125 0l0 -3.859375l0.890625 -0.15625q-0.21875 0.828125 -0.78125 1.609375q-0.5625 0.78125 -1.40625 1.390625q-0.84375 0.59375 -1.875 0.96875q-1.03125 0.359375 -2.1875 0.359375zm1.03125 -3.34375q1.328125 0 2.328125 -0.640625q1.015625 -0.65625 1.578125 -1.796875q0.578125 -1.15625 0.578125 -2.65625q0 -1.4687481 -0.578125 -2.593748q-0.5625 -1.140625 -1.578125 -1.78125q-1.0 -0.65625 -2.328125 -0.65625q-1.3125 0 -2.3125 0.65625q-0.984375 0.640625 -1.546875 1.78125q-0.546875 1.125 -0.546875 2.593748q0 1.5 0.546875 2.65625q0.5625 1.140625 1.546875 1.796875q1.0 0.640625 2.3125 0.640625zm19.806366 10.078125q-1.796875 0 -3.59375 -0.546875q-1.796875 -0.546875 -2.90625 -1.4375l1.359375 -2.796875q0.640625 0.46875 1.4375 0.796875q0.796875 0.34375 1.703125 0.515625q0.90625 0.1875 1.796875 0.1875q1.625 0 2.703125 -0.5q1.09375 -0.5 1.640625 -1.53125q0.546875 -1.03125 0.546875 -2.5625l0 -2.96875l0.5625 0.203125q-0.1875 0.953125 -1.015625 1.8125q-0.828125 0.859375 -2.09375 1.40625q-1.25 0.53125 -2.5625 0.53125q-2.296875 0 -4.0625 -1.078125q-1.765625 -1.078125 -2.796875 -2.921875q-1.015625 -1.859375 -1.015625 -4.28125q0 -2.421873 1.0 -4.296873q1.015625 -1.890625 2.78125 -2.984375q1.765625 -1.09375 3.96875 -1.09375q0.921875 0 1.78125 0.21875q0.859375 0.21875 1.578125 0.625q0.71875 0.390625 1.296875 0.890625q0.578125 0.484375 0.953125 1.03125q0.375 0.546875 0.453125 1.078125l-0.796875 0.234375l0.0625 -3.734375l3.71875 0l0 15.046873q0 1.96875 -0.59375 3.46875q-0.578125 1.5 -1.6875 2.5625q-1.09375 1.0625 -2.65625 1.59375q-1.5625 0.53125 -3.5625 0.53125zm0.15625 -10.109375q1.375 0 2.4375 -0.640625q1.0625 -0.65625 1.640625 -1.78125q0.578125 -1.140625 0.578125 -2.609375q0 -1.4999981 -0.59375 -2.640623q-0.59375 -1.15625 -1.640625 -1.796875q-1.046875 -0.65625 -2.421875 -0.65625q-1.375 0 -2.421875 0.671875q-1.046875 0.65625 -1.640625 1.8125q-0.59375 1.1406231 -0.59375 2.609373q0 1.4375 0.59375 2.59375q0.59375 1.140625 1.640625 1.796875q1.046875 0.640625 2.421875 0.640625zm20.266815 3.375q-2.546875 0 -4.5 -1.078125q-1.9375 -1.078125 -3.03125 -2.921875q-1.078125 -1.859375 -1.078125 -4.25q0 -1.9062481 0.609375 -3.468748q0.609375 -1.5625 1.6875 -2.703125q1.09375 -1.15625 2.609375 -1.78125q1.53125 -0.640625 3.328125 -0.640625q1.59375 0 2.96875 0.625q1.390625 0.609375 2.390625 1.671875q1.015625 1.046875 1.546875 2.515625q0.546875 1.453125 0.515625 3.171873l-0.03125 1.3125l-13.09375 0l-0.703125 -2.578123l10.640625 0l-0.484375 0.5312481l0 -0.6874981q-0.09375 -0.9375 -0.625 -1.65625q-0.515625 -0.734375 -1.328125 -1.140625q-0.8125 -0.421875 -1.796875 -0.421875q-1.5 0 -2.53125 0.59375q-1.015625 0.578125 -1.546875 1.671875q-0.515625 1.078125 -0.515625 2.703123q0 1.5625 0.65625 2.734375q0.65625 1.15625 1.859375 1.796875q1.21875 0.625 2.84375 0.625q1.140625 0 2.09375 -0.359375q0.953125 -0.375 2.046875 -1.328125l1.875 2.609375q-0.828125 0.765625 -1.890625 1.296875q-1.046875 0.53125 -2.21875 0.84375q-1.171875 0.3125 -2.296875 0.3125z" fill-rule="nonzero"/><path fill="#000000" fill-opacity="0.0" d="m0.4680063 26.422144l404.12598 0l0 94.96063l-404.12598 0z" fill-rule="evenodd"/><path fill="#121111" d="m45.164005 55.61808l-3.03125 0l-17.328125 49.484375l-13.78125 0l21.921875 -60.65625l21.65625 0l21.843754 60.65625l-13.781254 0l-17.5 -49.484375zm-19.5 25.21875l35.359375 0l0 11.1875l-35.359375 0l0 -11.1875zm75.64581 24.875q-6.3125 0.078125 -11.171875 -2.734375q-4.859375 -2.8125 -7.546875 -7.796875q-2.671875 -4.984375 -2.671875 -11.65625q0 -6.578125 2.671875 -11.640625q2.6875 -5.078125 7.546875 -7.890625q4.859375 -2.828125 11.171875 -2.828125q7.203125 0 12.609375 3.59375q5.421875 3.59375 7.59375 9.84375l-11.96875 2.9375q-0.859375 -2.328125 -2.859375 -3.625q-1.984375 -1.3125 -4.59375 -1.3125q-2.59375 0 -4.59375 1.390625q-1.984375 1.390625 -3.078125 3.859375q-1.078125 2.46875 -1.078125 5.671875q0 4.859375 2.421875 7.8125q2.4375 2.9375 6.328125 2.9375q2.515625 0 4.5 -1.25q2.0 -1.265625 3.125 -3.609375l11.875 3.03125q-2.15625 5.984375 -7.671875 9.578125q-5.5 3.59375 -12.609375 3.6875zm53.03454 -0.609375l-0.859375 -5.375q-2.25 2.78125 -4.859375 4.34375q-2.59375 1.546875 -6.921875 1.546875q-4.078125 0 -7.28125 -1.421875q-3.203125 -1.4375 -5.078125 -4.203125q-1.8593674 -2.78125 -1.8593674 -6.671875q0 -5.375 3.8593674 -8.921875q3.859375 -3.5625 12.0 -4.421875l10.140625 -1.125l0 -2.859375q0 -1.484375 -1.4375 -2.90625q-1.421875 -1.4375 -4.453125 -1.4375q-2.6875 0 -4.640625 1.390625q-1.953125 1.390625 -2.640625 3.984375l-10.828125 -3.890625q1.90625 -5.8125 6.703125 -8.890625q4.8125 -3.078125 11.921875 -3.078125q8.84375 0 13.4375 4.421875q4.59375 4.421875 4.59375 11.875l0 27.640625l-11.796875 0zm-0.859375 -18.453125l-8.0625 0.953125q-2.421875 0.34375 -3.6875 1.515625q-1.25 1.171875 -1.25 2.90625q0 1.640625 1.375 2.765625q1.390625 1.125 3.828125 1.125q2.421875 0 4.15625 -0.984375q1.734375 -1.0 2.6875 -2.859375q0.953125 -1.875 0.953125 -4.640625l0 -0.78125zm52.69348 -18.203125l-1.734375 0.09375l0 -25.828125l12.640625 0l0 62.390625l-11.4375 0l-0.78125 -5.453125q-1.734375 2.5 -5.109375 4.28125q-3.375 1.78125 -7.53125 1.78125q-5.46875 0 -9.765625 -2.734375q-4.28125 -2.734375 -6.703125 -7.75q-2.421875 -5.03125 -2.421875 -11.796875q0 -6.84375 2.421875 -11.8125q2.421875 -4.984375 6.671875 -7.71875q4.25 -2.734375 9.796875 -2.734375q4.9375 0 8.484375 2.125q3.546875 2.125 5.46875 5.15625zm-19.25 14.984375q0 4.78125 2.421875 7.6875q2.4375 2.890625 6.328125 2.890625q2.34375 0 4.328125 -1.203125q2.0 -1.21875 3.21875 -3.5625q1.21875 -2.34375 1.21875 -5.8125q0 -3.453125 -1.21875 -5.796875q-1.21875 -2.34375 -3.21875 -3.59375q-1.984375 -1.265625 -4.328125 -1.265625q-3.984375 0 -6.375 2.953125q-2.375 2.9375 -2.375 7.703125zm59.88011 22.28125q-6.671875 0 -11.609375 -2.8125q-4.9375 -2.828125 -7.671875 -7.9375q-2.71875 -5.109375 -2.71875 -11.953125q0 -6.328125 2.671875 -11.265625q2.6875 -4.9375 7.546875 -7.75q4.859375 -2.828125 11.0 -2.828125q6.5 0 11.26564 2.640625q4.765625 2.640625 7.453125 7.5q2.6875 4.859375 2.6875 11.265625q0 1.046875 -0.09375 2.171875q-0.078125 1.125 -0.25 2.515625l-28.76564 0q0.421875 2.328125 1.640625 4.03125q1.21875 1.6875 3.078125 2.59375q1.859375 0.90625 4.296875 0.90625q2.671875 0 4.84375 -1.125q2.171875 -1.125 3.203125 -3.203125l11.35939 3.109375q-2.609375 5.8125 -7.8125 8.984375q-5.1875153 3.15625 -12.125015 3.15625zm6.84375 -26.6875q-0.078125 -2.171875 -1.125 -3.8125q-1.03125 -1.65625 -2.6875 -2.609375q-1.640625 -0.953125 -3.640625 -0.859375q-1.984375 0.078125 -3.59375 1.0q-1.59375 0.90625 -2.734375 2.515625q-1.125 1.59375 -1.375 3.765625l15.15625 0zm21.503372 -17.25l11.4375 0l0.859375 4.421875q2.078125 -2.25 4.9375 -3.640625q2.859375 -1.390625 6.25 -1.390625q3.984375 0 7.40625 1.734375q3.421875 1.734375 5.5 5.03125q2.421875 -3.03125 6.015625 -4.890625q3.609375 -1.875 7.9375 -1.875q5.109375 0 8.875 2.171875q3.78125 2.15625 5.859375 6.328125q2.078125 4.15625 2.078125 10.140625l0 25.296875l-12.65625 0l0 -23.75q0 -4.15625 -1.90625 -6.359375q-1.90625 -2.21875 -5.375 -2.21875q-3.640625 0 -5.640625 2.265625q-1.984375 2.25 -1.984375 6.578125l0 23.484375l-12.65625 0l0 -23.75q0 -4.15625 -1.734375 -6.359375q-1.71875 -2.21875 -5.28125 -2.21875q-3.640625 0 -5.46875 2.265625q-1.8125 2.25 -1.8125 6.40625l0 23.65625l-12.640625 0l0 -43.328125zm104.494446 0l13.703125 0l-25.65625 60.65625l-12.90625 0l8.578125 -19.328125l-17.15625 -41.328125l14.125 0l9.609375 25.90625l9.703125 -25.90625z" fill-rule="nonzero"/></g></svg>