<svg version="1.1" viewBox="0.0 0.0 955.6062992125984 276.01837270341207" fill="none" stroke="none" stroke-linecap="square" stroke-miterlimit="10" xmlns:xlink="http://www.w3.org/1999/xlink" xmlns="http://www.w3.org/2000/svg"><clipPath id="p.0"><path d="m0 0l955.6063 0l0 276.01837l-955.6063 0l0 -276.01837z" clip-rule="nonzero"/></clipPath><g clip-path="url(#p.0)"><path fill="#000000" fill-opacity="0.0" d="m0 0l955.6063 0l0 276.01837l-955.6063 0z" fill-rule="evenodd"/><path fill="#000000" fill-opacity="0.0" d="m0 0l954.96063 0l0 274.99213l-954.96063 0z" fill-rule="evenodd"/><path fill="#134f5c" d="m73.899475 133.92545q7.140625 0 11.78125 -2.234375q4.65625 -2.234375 6.890625 -6.421875q2.234375 -4.203125 2.234375 -9.921875q0 -8.75 -5.09375 -13.578125q-5.09375 -4.828125 -15.8125 -4.828125l-26.625 0l0 36.984375l26.625 0zm45.546875 -18.578125q0 6.96875 -2.5 13.84375q-2.5 6.875 -7.859375 12.515625q-5.359375 5.625 -13.84375 9.015625q-8.484375 3.390625 -20.625 3.390625l-27.34375 0l0 47.703125l-24.109375 0l0 -125.0625l51.453125 0q15.171875 0 25.09375 5.28125q9.921875 5.265625 14.828125 14.109375q4.90625 8.84375 4.90625 19.203125zm17.159332 -42.15625l22.859375 0l0 128.625l-22.859375 0l0 -128.625zm97.37399 128.625l-1.796875 -10.890625q-4.46875 5.53125 -10.09375 8.75q-5.625 3.21875 -15.09375 3.21875q-8.9375 0 -15.640625 -3.125q-6.6875 -3.140625 -10.453125 -8.765625q-3.75 -5.625 -3.75 -13.3125q0 -11.25 8.125 -18.65625q8.140625 -7.421875 24.578125 -9.390625l22.328125 -2.5l0 -6.25q0 -3.75 -3.390625 -6.96875q-3.390625 -3.21875 -10.71875 -3.21875q-6.4375 0 -11.171875 3.125q-4.734375 3.125 -6.34375 9.390625l-19.640625 -7.15625q3.5625 -11.96875 13.5625 -18.390625q10.015625 -6.4375 24.65625 -6.4375q17.875 0 26.890625 8.84375q9.03125 8.84375 9.03125 23.3125l0 58.421875l-21.078125 0zm-1.796875 -38.765625l-19.296875 2.5q-5.890625 0.71875 -8.9375 3.484375q-3.03125 2.765625 -3.03125 6.703125q0 3.75 3.03125 6.34375q3.046875 2.578125 8.578125 2.578125q6.265625 0 10.640625 -2.3125q4.375 -2.328125 6.6875 -6.796875q2.328125 -4.46875 2.328125 -11.078125l0 -1.421875zm102.01874 -50.5625l24.46875 0l-52.703125 125.0625l-23.046875 0l16.796875 -38.953125l-35.1875 -86.109375l25.546875 0l21.796875 58.78125l22.328125 -58.78125zm100.04828 0l20.71875 0l0 76.109375q0 15.1875 -7.5 26.171875q-7.5 10.984375 -21.703125 16.875q-14.203125 5.90625 -34.046875 5.90625l-3.5625 -19.296875q21.609375 -0.359375 32.78125 -7.6875q11.171875 -7.328125 11.171875 -21.078125l0 -0.359375l3.03125 -1.0625q-4.296875 6.25 -11.796875 10.625q-7.5 4.375 -17.859375 4.375q-11.796875 0 -20.734375 -5.71875q-8.921875 -5.71875 -14.015625 -15.984375q-5.09375 -10.28125 -5.09375 -24.21875q0 -13.921875 5.09375 -24.28125q5.09375 -10.375 14.015625 -16.0q8.9375 -5.625 20.734375 -5.625q6.078125 0 11.34375 1.703125q5.265625 1.6875 9.28125 4.46875q4.03125 2.765625 6.703125 6.15625l1.4375 -11.078125zm-44.125 44.65625q0 11.265625 5.796875 18.140625q5.8125 6.875 15.453125 6.875q5.546875 0 10.1875 -2.9375q4.640625 -2.953125 7.59375 -8.671875q2.953125 -5.71875 2.953125 -13.40625q0 -8.03125 -2.953125 -13.5625q-2.953125 -5.546875 -7.6875 -8.484375q-4.734375 -2.953125 -10.09375 -2.953125q-9.640625 0 -15.453125 6.875q-5.796875 6.875 -5.796875 18.125zm86.82086 -44.65625l20.71875 0l1.609375 11.4375q3.75 -4.65625 8.484375 -7.59375q4.734375 -2.953125 10.453125 -4.109375q5.71875 -1.15625 11.96875 0.265625l0 21.4375q-4.8125 -1.609375 -10.09375 -0.890625q-5.265625 0.71875 -9.828125 3.75q-4.546875 3.03125 -7.5 8.671875q-2.953125 5.625 -2.953125 14.203125l0 42.15625l-22.859375 0l0 -89.328125zm106.6496 90.578125q-13.03125 0 -23.21875 -5.625q-10.1875 -5.625 -16.0 -15.890625q-5.796875 -10.28125 -5.796875 -24.21875q0 -14.109375 5.984375 -24.46875q5.984375 -10.375 16.34375 -16.0q10.359375 -5.625 23.234375 -5.625q12.859375 0 23.21875 5.625q10.359375 5.625 16.4375 15.90625q6.078125 10.265625 6.078125 24.203125q0 14.109375 -6.171875 24.484375q-6.15625 10.359375 -16.609375 15.984375q-10.453125 5.625 -23.5 5.625zm-0.171875 -20.546875q5.53125 0 10.53125 -2.765625q5.015625 -2.765625 8.21875 -8.390625q3.21875 -5.640625 3.21875 -14.390625q0 -8.390625 -3.03125 -14.015625q-3.03125 -5.640625 -7.953125 -8.40625q-4.90625 -2.765625 -10.625 -2.765625q-5.546875 0 -10.28125 2.765625q-4.734375 2.765625 -7.59375 8.40625q-2.84375 5.625 -2.84375 14.375q0 8.390625 2.765625 14.03125q2.765625 5.625 7.40625 8.390625q4.65625 2.765625 10.1875 2.765625zm142.56085 19.296875l-20.890625 0l-1.4375 -9.296875q-4.46875 5.015625 -10.640625 7.78125q-6.15625 2.765625 -13.125 2.765625q-10.359375 0 -17.859375 -4.46875q-7.5 -4.46875 -11.609375 -12.953125q-4.109375 -8.484375 -4.109375 -20.984375l0 -52.171875l23.046875 0l0 49.3125q0 10.1875 4.015625 15.453125q4.015625 5.265625 12.421875 5.265625q8.390625 0 12.859375 -5.359375q4.46875 -5.359375 4.46875 -15.546875l0 -49.125l22.859375 0l0 89.328125zm21.982971 -89.328125l20.71875 0l1.609375 9.109375q4.296875 -4.828125 10.453125 -7.59375q6.171875 -2.765625 13.3125 -2.765625q10.53125 0 17.953125 4.46875q7.421875 4.46875 11.4375 12.953125q4.015625 8.484375 4.015625 20.984375l0 52.171875l-23.046875 0l0 -49.125q0 -10.375 -4.109375 -15.546875q-4.109375 -5.1875 -12.328125 -5.1875q-8.390625 0 -12.78125 5.28125q-4.375 5.265625 -4.375 15.625l0 48.953125l-22.859375 0l0 -89.328125z" fill-rule="nonzero"/><path fill="#134f5c" d="m913.0372 125.894196l-2.84375 0.34375l0 -53.046875l22.859375 0l0 128.625l-20.71875 0l-1.4375 -11.078125q-4.28125 5.0 -11.34375 8.671875q-7.046875 3.65625 -16.34375 3.65625q-11.609375 0 -20.546875 -5.71875q-8.9375 -5.71875 -13.9375 -15.984375q-5.0 -10.28125 -5.0 -24.21875q0 -13.921875 5.0 -24.28125q5.0 -10.375 13.9375 -16.0q8.9375 -5.625 20.546875 -5.625q10.546875 0 18.125 4.296875q7.59375 4.28125 11.703125 10.359375zm-44.828125 31.25q0 11.265625 5.796875 18.140625q5.8125 6.875 15.09375 6.875q5.71875 0 10.453125 -2.9375q4.734375 -2.953125 7.6875 -8.484375q2.953125 -5.546875 2.953125 -13.59375q0 -8.03125 -2.953125 -13.5625q-2.953125 -5.546875 -7.6875 -8.484375q-4.734375 -2.953125 -10.453125 -2.953125q-9.28125 0 -15.09375 6.875q-5.796875 6.875 -5.796875 18.125z" fill-rule="nonzero"/></g></svg>